<svg xmlns="http://www.w3.org/2000/svg" width="64" height="64" viewBox="0 0 64 64.00008">
    <title>
        Lorem Ipsum
    </title>
    <path d="M9.83.289C4.549.289.295 3.646.295 7.815v48.37c0 3.909 4.807 7.487 9.783 7.526H54.17c5.283 0 9.537-3.357 9.537-7.526v-41.81c0-2.287-1.286-4.325-3.315-5.703.313.746.489 1.543.489 2.374v41.809c0 4.169-4.255 7.524-9.539 7.524h-38.89c-1.671 0-5.584-1.984-6.271-3.32.463.054 3.168.092 3.65.092h38.89c5.284 0 9.537-3.358 9.537-7.527V7.815c0-4.169-4.253-7.526-9.536-7.526z" fill="#cc6c2d" stroke="#ff9249" stroke-width=".583" stroke-linecap="square"/>
    <g style="line-height:125%;-inkscape-font-specification:'Andale Mono';text-align:center" font-weight="700" font-size="51.047" font-family="Times New Roman" letter-spacing="0" word-spacing="0" text-anchor="middle" fill="#752f00" fill-opacity=".959">
        <path d="M26.066 36.516h-9.052l-1.077 2.447q-.53 1.224-.53 2.021 0 1.057.87 1.557.51.297 2.513.445v.686h-8.522v-.686q1.38-.204 2.267-1.112.888-.927 2.192-3.8l9.166-20.059h.359l9.24 20.615q1.324 2.929 2.174 3.689.642.574 1.814.667v.686H25.083v-.686h.51q1.493 0 2.098-.408.416-.296.416-.852 0-.334-.114-.686-.037-.167-.566-1.39l-1.361-3.134zm-.643-1.371l-3.817-8.658-3.93 8.658h7.747z" style="-inkscape-font-specification:'Times New Roman, Bold'"/>
        <path d="M48.989 41.114q-3.232 2.8-5.802 2.8-1.512 0-2.513-.965-1.002-.982-1.002-2.447 0-1.984 1.739-3.56 1.738-1.594 7.578-4.226v-1.742q0-1.966-.227-2.466-.208-.52-.813-.89-.604-.39-1.36-.39-1.229 0-2.022.538-.492.334-.492.779 0 .39.53.964.718.797.718 1.539 0 .908-.7 1.557-.68.63-1.795.63-1.19 0-2.003-.704-.794-.705-.794-1.65 0-1.335 1.077-2.54 1.078-1.223 3.005-1.872 1.928-.65 4.006-.65 2.514 0 3.969 1.058 1.474 1.038 1.909 2.261.264.779.264 3.578v6.73q0 1.186.095 1.501.094.297.283.445.19.148.435.148.491 0 1.001-.686l.567.445q-.945 1.372-1.965 2.002-1.002.612-2.287.612-1.511 0-2.362-.686-.85-.704-1.04-2.113zm0-1.353v-5.803q-2.287 1.316-3.402 2.818-.737 1.001-.737 2.02 0 .853.624 1.502.472.5 1.323.5.945 0 2.192-1.037z" style="-inkscape-font-specification:'Times New Roman, Bold'" font-size="35"/>
    </g>
    <path d="M7 7.336h2.176v45.197H7z" fill="#752f00" fill-opacity=".959"/>
</svg>
